<svg id="Layer_1" data-name="Layer 1" xmlns="http://www.w3.org/2000/svg" viewBox="0 0 169.06 169.06"><title>Artboard 1 copy</title><path d="M95.58,167H69.09a7.79,7.79,0,0,1-7.78-7.78v-60H45.61a7.79,7.79,0,0,1-7.78-7.78V65.84a7.79,7.79,0,0,1,7.78-7.78h15.7V45c0-25.67,16.86-42.93,42-42.93l20.2,0h0a7.78,7.78,0,0,1,7.76,7.78V33.65a7.79,7.79,0,0,1-7.78,7.78h-13.6c-4.13,0-5.3.81-5.61,1.17-.58.65-.88,2.36-.88,5.07V58.06H122.5a7.78,7.78,0,0,1,7.79,7.78v25.6a7.79,7.79,0,0,1-7.78,7.78H103.36v60A7.79,7.79,0,0,1,95.58,167Zm-25.06-9.21H94.15V94.62A4.6,4.6,0,0,1,98.76,90h22.31V67.27H98.76a4.6,4.6,0,0,1-4.61-4.61v-15c0-13.62,7.94-15.46,15.7-15.46H122V11.3l-18.76,0C83.07,11.27,70.52,24.19,70.52,45V62.66a4.6,4.6,0,0,1-4.61,4.61H47V90H65.91a4.6,4.6,0,0,1,4.61,4.61ZM123.45,11.31Z"/></svg>