<svg id="Layer_1" data-name="Layer 1" xmlns="http://www.w3.org/2000/svg" viewBox="0 0 169.06 169.06"><title>Artboard 1</title><path d="M119.42,167H49.64A47.63,47.63,0,0,1,2.06,119.42V49.64A47.64,47.64,0,0,1,49.64,2.06h69.78A47.63,47.63,0,0,1,167,49.64v69.78A47.63,47.63,0,0,1,119.42,167ZM49.64,11.27A38.42,38.42,0,0,0,11.27,49.64v69.78a38.42,38.42,0,0,0,38.37,38.37h69.78a38.41,38.41,0,0,0,38.37-38.37V49.64a38.43,38.43,0,0,0-38.37-38.37Z"/><path d="M84.53,122.73a38.2,38.2,0,1,1,38.2-38.2A38.25,38.25,0,0,1,84.53,122.73Zm0-67.19a29,29,0,1,0,29,29A29,29,0,0,0,84.53,55.54Z"/><path d="M126.34,57.56a14.73,14.73,0,1,1,10.42-4.31A14.83,14.83,0,0,1,126.34,57.56Zm0-20.26a5.55,5.55,0,0,0-5.53,5.52,5.55,5.55,0,0,0,5.53,5.53,5.53,5.53,0,1,0,0-11.05Z"/></svg>