<svg id="Layer_1" data-name="Layer 1" xmlns="http://www.w3.org/2000/svg" viewBox="0 0 500 500"><defs><style>.cls-1{fill:#1e54a4;}.cls-2{fill:#0a1a2c;}.cls-3{fill:#0b2544;}</style></defs><title>Artboard 4</title><path class="cls-1" d="M433,197.85a25.46,25.46,0,0,1-.49-4.28c-.12-1.46-.24-2.81-.36-4.27-.25-3.92-.61-8-1.1-11.86a180.85,180.85,0,0,0-24.7-70.06,130.13,130.13,0,0,0-26.9-29.23l-3.3-2.56-.18,0A121.22,121.22,0,0,0,346.1,59a223.72,223.72,0,0,0-63.82-14.31,286.45,286.45,0,0,0-103.44,6.73,168,168,0,0,0-40.35,15.4c-34.6,20.3-58.32,53.92-65.29,92.32a296.34,296.34,0,0,0-6.36,63.08V456.69H174.93a33.71,33.71,0,0,0,.24-6v-257a41.82,41.82,0,0,1,.13-7.83v-.37a56.07,56.07,0,0,1,18.09-35.94l.25-.12a58.68,58.68,0,0,1,31.66-14.8,131.84,131.84,0,0,1,25.07-2.32h.12c2.2,0,4.52.12,6.72.24l5.51.37a66.57,66.57,0,0,1,47.92,23.84,72.83,72.83,0,0,1,13.21,46.1v193.3a129,129,0,0,0,5.26,32c4.64,14.8,18.34,25.44,34.35,26.66,19.2,1.22,38.15,2.32,57.35,2.32,12,.49,12,.25,12-11.37V218.64C433.16,211.67,433.28,204.7,433,197.85Z"/><path class="cls-2" d="M193.64,149.44c65.65-65.17,181.07-73.73,182.54-73.85h0l3.3,2.56s-84.36,7.46-122.27,54.41c-2.2-.12-4.52-.24-6.72-.24h-.12a131.84,131.84,0,0,0-25.07,2.32A58.68,58.68,0,0,0,193.64,149.44Z"/><path class="cls-3" d="M433,197.85a25.46,25.46,0,0,1-.49-4.28c-.12-1.46-.24-2.81-.36-4.27-.25-3.92-.61-8-1.1-11.86a180.85,180.85,0,0,0-24.7-70.06,130.13,130.13,0,0,0-26.9-29.23S295,85.61,257.21,132.56l5.51.37a66.57,66.57,0,0,1,47.92,23.84,72.83,72.83,0,0,1,13.21,46.1v193.3a129,129,0,0,0,5.26,32c4.64,14.8,18.34,25.44,34.35,26.66,19.2,1.22,38.15,2.32,57.35,2.32,12,.49,12,.25,12-11.37V218.64C433.16,211.67,433.28,204.7,433,197.85Z"/><path class="cls-2" d="M378.5,244.19c-22.25,0-40.22,19.32-40.22,43.16s18.09,43.16,40.22,43.16,40.11-19.31,40.11-43.16S400.63,244.19,378.5,244.19Z"/><path class="cls-1" d="M378.5,244.19a36.56,36.56,0,1,1-36.56,36.56A36.58,36.58,0,0,1,378.5,244.19Z"/></svg>