<svg id="Layer_1" data-name="Layer 1" xmlns="http://www.w3.org/2000/svg" viewBox="0 0 169.06 169.06"><title>Artboard 1 copy 2</title><path d="M56.05,151.5A93.77,93.77,0,0,1,5.28,136.6a4.62,4.62,0,0,1,3-8.48,62,62,0,0,0,7,.4,58.4,58.4,0,0,0,27-6.51,36.08,36.08,0,0,1-21.7-22.79,4.61,4.61,0,0,1,1-4.48,4.48,4.48,0,0,1,.72-.66A36.19,36.19,0,0,1,9.33,66.42V66a4.63,4.63,0,0,1,2.28-4,4.51,4.51,0,0,1,2.57-.63,36.18,36.18,0,0,1,.3-35.8A4.62,4.62,0,0,1,22.05,25,85.18,85.18,0,0,0,78,55.76c0-.7-.06-1.39-.06-2.09A36.12,36.12,0,0,1,138.5,27.08a58.88,58.88,0,0,0,16.2-6.57,4.62,4.62,0,0,1,6.75,5.39,36.19,36.19,0,0,1-3.32,7.36c.43-.17.86-.36,1.29-.55a4.62,4.62,0,0,1,5.71,6.79,67.14,67.14,0,0,1-14.91,16l0,1.67v.12A97.36,97.36,0,0,1,126,120.74C113.67,134.77,91.48,151.5,56.05,151.5ZM26.34,136.88a84.38,84.38,0,0,0,29.71,5.38c32,0,51.94-15,63.05-27.63A88,88,0,0,0,141,57.34l-.1-4a4.6,4.6,0,0,1,1.93-3.88q2.29-1.64,4.4-3.47c-1.16.2-2.33.37-3.5.51a4.62,4.62,0,0,1-2.92-8.56A26.14,26.14,0,0,0,145,34.87a67.36,67.36,0,0,1-7,1.79,4.62,4.62,0,0,1-4.27-1.37,26.6,26.6,0,0,0-19.61-8.49,26.93,26.93,0,0,0-26.18,33,4.63,4.63,0,0,1-4.73,5.67,94.31,94.31,0,0,1-63.3-29A26.91,26.91,0,0,0,30.78,66.13a4.62,4.62,0,0,1-2.72,8.46,35.85,35.85,0,0,1-8.6-1.34A27,27,0,0,0,40.12,92.77a4.62,4.62,0,0,1,.29,9A37.13,37.13,0,0,1,32.53,103a26.83,26.83,0,0,0,21.95,12.08,4.62,4.62,0,0,1,2.77,8.26A67.22,67.22,0,0,1,26.34,136.88Z"/></svg>