<svg id="Layer_1" data-name="Layer 1" xmlns="http://www.w3.org/2000/svg" viewBox="0 0 169.06 169.06"><title>Artboard 1 copy 3</title><path d="M7.75,166.06A4.74,4.74,0,0,1,3.19,160l10.3-35.5a81.62,81.62,0,1,1,31.09,31.08L9.07,165.88A4.94,4.94,0,0,1,7.75,166.06ZM45.21,145.7a4.71,4.71,0,0,1,2.44.68,72.14,72.14,0,1,0-25-25,4.79,4.79,0,0,1,.49,3.77l-8.47,29.17,29.17-8.46A4.65,4.65,0,0,1,45.21,145.7Zm69.51-16.23a59.15,59.15,0,0,1-10.8-1.05c-26.43-5.1-57.1-34.64-63.1-60.76-3-13.29-1.47-25.43,4-30.93l3.57-3.57a9.81,9.81,0,0,1,13.86,0L76.56,47.45a9.8,9.8,0,0,1,0,13.86L73,64.88a5.37,5.37,0,0,0,0,7.58L96.57,95.73a5.37,5.37,0,0,0,7.6,0l3.57-3.57a9.82,9.82,0,0,1,6.92-2.78h0a9.84,9.84,0,0,1,6.94,2.78l14.29,14.29a9.8,9.8,0,0,1,0,13.86h0l-3.58,3.57C127.9,128.33,120.84,129.47,114.72,129.47ZM55.34,39.79a.3.3,0,0,0-.21.09l-3.57,3.57C49.34,45.66,47.42,54,50.07,65.53c5.2,22.61,32.76,49.15,55.65,53.57,7.49,1.44,16.73,1.25,19.89-1.91l3.57-3.57a.28.28,0,0,0,.09-.21.3.3,0,0,0-.08-.22L114.89,98.9a1.08,1.08,0,0,0-.49,0l-3.51,3.53a14.88,14.88,0,0,1-21,0L66.3,79.2a14.9,14.9,0,0,1,0-21l3.58-3.57a.27.27,0,0,0,.09-.22.28.28,0,0,0-.09-.21L55.56,39.88A.31.31,0,0,0,55.34,39.79ZM132.54,117h0Z"/></svg>